.
 
http://www.scenetime.com    -   SceneTime [ We been having it ] !!!


How come you press harder on a remote control when you know the battery is dead? so you better seed to get speed ;)

        Seed back for speed


...................................NFO:.................................................Another Fine Release Brought to you from -
===================================================================================================
BBBBBBBBBBBBBBBBB   BBBBBBBBBBBBBBBBB                     RRRRRRRRRRRRRRRRR           GGGGGGGGGGGGG
B::::::::::::::::B  B::::::::::::::::B                    R::::::::::::::::R       GGG::::::::::::G
B::::::BBBBBB:::::B B::::::BBBBBB:::::B                   R::::::RRRRRR:::::R    GG:::::::::::::::G
BB:::::B     B:::::BBB:::::B     B:::::B                  RR:::::R     R:::::R  G:::::GGGGGGGG::::G
  B::::B     B:::::B  B::::B     B:::::Bnnnn  nnnnnnnn      R::::R     R:::::R G:::::G       GGGGGG
  B::::B     B:::::B  B::::B     B:::::Bn:::nn::::::::nn    R::::R     R:::::RG:::::G              
  B::::BBBBBB:::::B   B::::BBBBBB:::::B n::::::::::::::nn   R::::RRRRRR:::::R G:::::G              
  B:::::::::::::BB    B:::::::::::::BB  nn:::::::::::::::n  R:::::::::::::RR  G:::::G    GGGGGGGGGG
  B::::BBBBBB:::::B   B::::BBBBBB:::::B   n:::::nnnn:::::n  R::::RRRRRR:::::R G:::::G    G::::::::G
  B::::B     B:::::B  B::::B     B:::::B  n::::n    n::::n  R::::R     R:::::RG:::::G    GGGGG::::G
  B::::B     B:::::B  B::::B     B:::::B  n::::n    n::::n  R::::R     R:::::RG:::::G        G::::G
  B::::B     B:::::B  B::::B     B:::::B  n::::n    n::::n  R::::R     R:::::R G:::::G       G::::G
BB:::::BBBBBB::::::BBB:::::BBBBBB::::::B  n::::n    n::::nRR:::::R     R:::::R  G:::::GGGGGGGG::::G
B:::::::::::::::::B B:::::::::::::::::B   n::::n    n::::nR::::::R     R:::::R   GG:::::::::::::::G
B::::::::::::::::B  B::::::::::::::::B    n::::n    n::::nR::::::R     R:::::R     GGG::::::GGG:::G
BBBBBBBBBBBBBBBBB   BBBBBBBBBBBBBBBBB     nnnnnn    nnnnnnRRRRRRRR     RRRRRRR        GGGGGG   GGGG
===================================================================================================
	                   Horrible Bosses (2011) READNFO CAM XviD-BBnRG
===================================================================================================												
 ___     _                    ___       __     
| _ \___| |___ __ _ ___ ___  |_ _|_ _  / _|___ 
|   / -_) / -_) _` (_-</ -_)  | || ' \|  _/ _ \
|_|_\___|_\___\__,_/__/\___| |___|_||_|_| \___/
===================================================================================================
Complete name                    : Horrible Bosses (2011) READNFO CAM XviD-BBnRG
File size                        : 694 MiB
Duration                         : 1h 33mn
Overall bit rate                 : 1 041 Kbps

Video
ID                               : 0
Format                           : MPEG-4 Visual
Format profile                   : Advanced Simple@L5
Format settings, BVOP            : 2
Format settings, QPel            : No
Format settings, GMC             : No warppoints
Format settings, Matrix          : Default (H.263)
Duration                         : 1h 33mn
Bit rate                         : 904 Kbps
Width                            : 720 pixels
Height                           : 382 pixels
Display aspect ratio             : 1.885
Frame rate                       : 23.976 fps
Color space                      : YUV
Chroma subsampling               : 4:2:0
Bit depth                        : 8 bits
Scan type                        : Progressive
Compression mode                 : Lossy
Bits/(Pixel*Frame)               : 0.137
Stream size                      : 603 MiB (87%)
Writing library                  : XviD 63

Audio
ID                               : 1
Format                           : MPEG Audio
Format version                   : Version 1
Format profile                   : Layer 3
Codec ID                         : 55
Codec ID/Hint                    : MP3
Duration                         : 1h 33mn
Bit rate mode                    : Constant
Bit rate                         : 128 Kbps
Channel(s)                       : 2 channels
Sampling rate                    : 44.1 KHz
Compression mode                 : Lossy
Delay relative to video          : 2ms
Stream size                      : 85.3 MiB (12%)
Alignment                        : Split accross interleaves
Interleave, duration             : 42 ms (1.00 video frame)
 ___     _                    ___                 _      _   _          
| _ \___| |___ __ _ ___ ___  |   \ ___ ___ __ _ _(_)_ __| |_(_)___ _ _  
|   / -_) / -_) _` (_-</ -_) | |) / -_|_-</ _| '_| | '_ \  _| / _ \ ' \ 
|_|_\___|_\___\__,_/__/\___| |___/\___/__/\__|_| |_| .__/\__|_\___/_||_|
                                                   |_|                  
===================================================================================================
Encoder: SMiLE

Plot:
Three friends conspire to murder their awful bosses when they realize they are standing in the way 
of their happiness.

IMDB: http://www.imdb.com/title/tt1499658/
  ___                     _  _     _          
 / __|_ _ ___ _  _ _ __  | \| |___| |_ ___ ___
| (_ | '_/ _ \ || | '_ \ | .` / _ \  _/ -_|_-<
 \___|_| \___/\_,_| .__/ |_|\_\___/\__\___/__/
                  |_|                        
===================================================================================================
Source(s):
Video: Horrible Bosses 2011 CAM-FU-ITS-FREE (Thanks!)
Audio: Horrible Bosses 2011 CAM-FU-ITS-FREE (Thanks!)

Release Notes:
Here we go with another fine release. The source for this was Decent, but did have issues. I took
the source, cropped out all of the black space around the screen, and tried my best get rid of
the chair at the bottom. There still is the odd black part that pops up every now and again and
the chair also pops up. Once i finished the cropping, i ran some filters, saturation, contrast,
brightness - just the usual. I was then left with a 400 x - Something resolution. So i then
resized it upwards to a 720 x 382, the AR may be off slightly, but it looks fine to me. Once that
part of the encode was done, i then had to go and snyc the audio as it was out by a considerable
amount, for starters the audo may be slightly out of sync, but it's only by a few touches, and it
will snap back into sync. I have put loads of effort into this one. Big thanks to the original
CAMMER, who did a pretty cool job. The audio on this is Decent CAM audio, it's a little hollow
but it's fine. If you don't mind watching CAM's then this is highly watchable. If you don't like
CAM's - Then don't download this, as all you will do is start moaning about it. The video starts
off a little rough, with a little bit of black around certain areas, there is camera movement to.
But as the movie progresses the video does get better. SO the end result is a synced sexy CAM, 
that is a considerable amount better than the original. The only thing left to say is, Enjoy
this hilarious movie and another fine BBnRG release! ;)

BBnRG: The Gods Of Great Quality Rips At A Small File Size.

SMiLE: Presenting Another Great Quality Release At A Small File Size.

Follow Us On Twitter:
If you have anything to offer; CAM'S, DVDSCR's, LiNE Audio, Or Anything please PM us or contact us.
  ___             _      
 / __|_ _ ___ ___| |_ ___
| (_ | '_/ -_) -_)  _|_ /
 \___|_| \___\___|\__/__|
===================================================================================================

IMAGiNE, NiCkkkDoN, Hive-CM8, T0XiC, *THC*, All BBnRG Encoders & to all other p2p teams out there.